<svg xmlns="http://www.w3.org/2000/svg" width="16" height="16" viewBox="0 0 16 16">
  <defs>
    <linearGradient id="grad" x1="0%" y1="0%" x2="100%" y2="100%">
      <stop offset="0%" style="stop-color:#2E7D32;stop-opacity:1" />
      <stop offset="100%" style="stop-color:#1B5E20;stop-opacity:1" />
    </linearGradient>
  </defs>
  <rect x="1" y="1" width="14" height="14" rx="2" ry="2" fill="url(#grad)" />
  <path d="M8 3.5C5.5 3.5 3.5 5.5 3.5 8C3.5 10.5 5.5 12.5 8 12.5C10.5 12.5 12.5 10.5 12.5 8C12.5 5.5 10.5 3.5 8 3.5ZM8 11.5C6 11.5 4.5 10 4.5 8C4.5 6 6 4.5 8 4.5C10 4.5 11.5 6 11.5 8C11.5 10 10 11.5 8 11.5Z" fill="white"/>
  <path d="M8 5.5C7.7 5.5 7.5 5.7 7.5 6V8C7.5 8.3 7.7 8.5 8 8.5H10C10.3 8.5 10.5 8.3 10.5 8C10.5 7.7 10.3 7.5 10 7.5H8.5V6C8.5 5.7 8.3 5.5 8 5.5Z" fill="white"/>
</svg>
