<svg xmlns="http://www.w3.org/2000/svg" width="128" height="128" viewBox="0 0 128 128">
  <defs>
    <linearGradient id="grad" x1="0%" y1="0%" x2="100%" y2="100%">
      <stop offset="0%" style="stop-color:#2E7D32;stop-opacity:1" />
      <stop offset="100%" style="stop-color:#1B5E20;stop-opacity:1" />
    </linearGradient>
    <filter id="shadow" x="-20%" y="-20%" width="140%" height="140%">
      <feGaussianBlur in="SourceAlpha" stdDeviation="3" />
      <feOffset dx="0" dy="2" result="offsetblur" />
      <feComponentTransfer>
        <feFuncA type="linear" slope="0.2" />
      </feComponentTransfer>
      <feMerge>
        <feMergeNode />
        <feMergeNode in="SourceGraphic" />
      </feMerge>
    </filter>
  </defs>
  
  <!-- Base shield background -->
  <rect x="14" y="14" width="100" height="100" rx="16" ry="16" fill="url(#grad)" filter="url(#shadow)" />
  
  <!-- Clock/shield icon -->
  <path d="M64 36C46 36 32 50 32 68C32 86 46 100 64 100C82 100 96 86 96 68C96 50 82 36 64 36ZM64 92C50 92 40 82 40 68C40 54 50 44 64 44C78 44 88 54 88 68C88 82 78 92 64 92Z" fill="white"/>
  <path d="M64 52C62 52 60 54 60 56V68C60 70 62 72 64 72H76C78 72 80 70 80 68C80 66 78 64 76 64H68V56C68 54 66 52 64 52Z" fill="white"/>
  
  <!-- Additional security details -->
  <circle cx="64" cy="68" r="28" fill="none" stroke="white" stroke-width="2" stroke-dasharray="4,4" />
</svg>
